<svg width="18" height="18" viewBox="0 0 18 18" fill="none" xmlns="http://www.w3.org/2000/svg">
<mask id="mask0_2477_49" style="mask-type:luminance" maskUnits="userSpaceOnUse" x="0" y="0" width="18" height="18">
<path fill-rule="evenodd" clip-rule="evenodd" d="M0.66687 0.66684H17.3358V17.3343H0.66687V0.66684Z" fill="white"/>
</mask>
<g mask="url(#mask0_2477_49)">
<path fill-rule="evenodd" clip-rule="evenodd" d="M8.12081 15.7296C8.61247 16.2096 9.40414 16.2038 9.89247 15.7129L10.4941 15.1129C10.9608 14.6471 11.6058 14.3813 12.2633 14.3813H13.1216C13.8166 14.3813 14.3816 13.8163 14.3816 13.1221V12.2646C14.3816 11.5971 14.64 10.9696 15.1116 10.4971L15.7116 9.89627C15.9558 9.65127 16.0866 9.33377 16.0858 8.9971C16.085 8.66127 15.9525 8.34543 15.7133 8.1071L15.1125 7.50543C14.64 7.0296 14.3816 6.40293 14.3816 5.73543V4.8796C14.3816 4.1846 13.8166 3.6196 13.1216 3.6196H12.265C11.5975 3.6196 10.97 3.36043 10.4975 2.89127L9.89581 2.28877C9.39497 1.79293 8.59581 1.79543 8.10664 2.28793L7.50747 2.88877C7.02914 3.36127 6.40164 3.6196 5.73664 3.6196H4.87914C4.18497 3.62043 3.61997 4.18543 3.61997 4.8796V5.73377C3.61997 6.40127 3.36081 7.02877 2.89081 7.5021L2.29914 8.0946C2.29331 8.10127 2.28747 8.10627 2.28164 8.1121C1.79247 8.6046 1.79497 9.40377 2.28747 9.89293L2.88914 10.4946C3.36081 10.9679 3.61997 11.5954 3.61997 12.2629V13.1221C3.61997 13.8163 4.18414 14.3813 4.87914 14.3813H5.73497C6.40331 14.3821 7.03081 14.6413 7.5033 15.1121L8.10414 15.7113C8.10914 15.7171 8.11497 15.7229 8.12081 15.7296ZM8.99914 17.3346C8.35997 17.3346 7.72081 17.0929 7.23164 16.6079C7.22497 16.6013 7.21831 16.5946 7.21164 16.5871L6.61997 15.9963C6.38414 15.7621 6.06914 15.6321 5.73414 15.6313H4.87914C3.49497 15.6313 2.36997 14.5054 2.36997 13.1221V12.2629C2.36997 11.9279 2.23914 11.6138 2.00414 11.3771L1.40497 10.7788C0.431639 9.81043 0.419972 8.23377 1.37581 7.25043C1.38331 7.24293 1.39081 7.23543 1.39831 7.22793L2.00497 6.6196C2.23914 6.38377 2.36997 6.06793 2.36997 5.73377V4.8796C2.36997 3.49627 3.49497 2.37043 4.87831 2.3696H5.73664C6.07081 2.3696 6.38581 2.23877 6.62497 2.00293L7.22081 1.40543C8.19497 0.424601 9.78747 0.419601 10.77 1.39627L11.3791 2.00543C11.615 2.2396 11.93 2.3696 12.265 2.3696H13.1216C14.5058 2.3696 15.6316 3.49543 15.6316 4.8796V5.73543C15.6316 6.0696 15.7616 6.38543 15.9975 6.62293L16.5958 7.2221C17.07 7.69293 17.3333 8.3221 17.3358 8.99293C17.3383 9.66377 17.0791 10.2946 16.6066 10.7704L15.9958 11.3796C15.7616 11.6154 15.6316 11.9296 15.6316 12.2646V13.1221C15.6316 14.5054 14.5058 15.6313 13.1225 15.6313H12.2633C11.9333 15.6313 11.6108 15.7646 11.3766 15.9971L10.7783 16.5954C10.2891 17.0879 9.64414 17.3346 8.99914 17.3346Z" fill="#C67C4E"/>
</g>
<path fill-rule="evenodd" clip-rule="evenodd" d="M6.85868 11.7679C6.69868 11.7679 6.53868 11.7071 6.41701 11.5846C6.17285 11.3404 6.17285 10.9454 6.41701 10.7013L10.7003 6.4171C10.9445 6.17294 11.3403 6.17294 11.5845 6.4171C11.8287 6.66127 11.8287 7.0571 11.5845 7.30127L7.30035 11.5846C7.17868 11.7071 7.01868 11.7679 6.85868 11.7679Z" fill="#C67C4E"/>
<path fill-rule="evenodd" clip-rule="evenodd" d="M11.0863 11.916C10.6254 11.916 10.2488 11.5435 10.2488 11.0827C10.2488 10.6218 10.6179 10.2493 11.0788 10.2493H11.0863C11.5471 10.2493 11.9196 10.6218 11.9196 11.0827C11.9196 11.5435 11.5471 11.916 11.0863 11.916Z" fill="#C67C4E"/>
<path fill-rule="evenodd" clip-rule="evenodd" d="M6.91965 7.74934C6.45882 7.74934 6.08215 7.37684 6.08215 6.91601C6.08215 6.45517 6.45132 6.08267 6.91215 6.08267H6.91965C7.38049 6.08267 7.75299 6.45517 7.75299 6.91601C7.75299 7.37684 7.38049 7.74934 6.91965 7.74934Z" fill="#C67C4E"/>
</svg>
